<svg width="200" height="72" viewBox="0 0 200 72" fill="none" xmlns="http://www.w3.org/2000/svg">
<path d="M69.2188 27.2344H76.8359V30.457H74.9609V41.7891H76.8359V45H69.2188V41.7891H71.0703V37.2422H63.0547V41.7891H64.9297V45H57.3242V41.7891H59.1641V30.457H57.3242V27.2344H64.9297V30.457H63.0547V34.1484H71.0703V30.457H69.2188V27.2344ZM79.0859 32.8594H84.5352V41.7891H86.2227V45H79.0859V41.7891H80.9141V36.0703H79.0859V32.8594ZM80.7266 28.9453C80.7266 28.6562 80.7773 28.3867 80.8789 28.1367C80.9883 27.8789 81.1367 27.6562 81.3242 27.4688C81.5117 27.2812 81.7305 27.1328 81.9805 27.0234C82.2383 26.9141 82.5156 26.8594 82.8125 26.8594C83.0938 26.8594 83.3594 26.9141 83.6094 27.0234C83.8594 27.1328 84.0781 27.2812 84.2656 27.4688C84.4531 27.6562 84.6016 27.8789 84.7109 28.1367C84.8203 28.3867 84.875 28.6562 84.875 28.9453C84.875 29.2344 84.8203 29.5078 84.7109 29.7656C84.6016 30.0156 84.4531 30.2344 84.2656 30.4219C84.0781 30.6094 83.8594 30.7578 83.6094 30.8672C83.3594 30.9766 83.0938 31.0312 82.8125 31.0312C82.5156 31.0312 82.2383 30.9766 81.9805 30.8672C81.7305 30.7578 81.5117 30.6094 81.3242 30.4219C81.1367 30.2344 80.9883 30.0156 80.8789 29.7656C80.7773 29.5078 80.7266 29.2344 80.7266 28.9453ZM99.3594 37.2773H96.0664V36.0234C95.7461 36.0234 95.4531 36.0469 95.1875 36.0938C94.9219 36.1328 94.6875 36.2031 94.4844 36.3047C94.2891 36.4062 94.1211 36.5469 93.9805 36.7266C93.8477 36.9062 93.7539 37.1289 93.6992 37.3945V41.7891H96.1719V45H88.25V41.7891H90.0664V36.0703H88.2734V32.8594H93.6758V33.7148C94.0195 33.4414 94.4062 33.2305 94.8359 33.082C95.2656 32.9336 95.7344 32.8594 96.2422 32.8594C96.7578 32.8594 97.2891 32.8633 97.8359 32.8711C98.3828 32.8789 98.8906 32.8828 99.3594 32.8828V37.2773ZM104.504 39.6914L104.539 40.0547C104.625 40.4062 104.77 40.7148 104.973 40.9805C105.184 41.2461 105.43 41.4688 105.711 41.6484C105.992 41.8281 106.305 41.9648 106.648 42.0586C106.992 42.1445 107.34 42.1875 107.691 42.1875C108.043 42.1875 108.375 42.168 108.688 42.1289C109.008 42.082 109.316 42.0234 109.613 41.9531C109.91 41.875 110.199 41.7891 110.48 41.6953C110.762 41.5938 111.047 41.4883 111.336 41.3789L112.625 43.7812C112.18 44.0547 111.77 44.2891 111.395 44.4844C111.027 44.6719 110.656 44.8281 110.281 44.9531C109.906 45.0781 109.508 45.168 109.086 45.2227C108.664 45.2852 108.172 45.3164 107.609 45.3164C106.555 45.3164 105.617 45.1445 104.797 44.8008C103.977 44.4492 103.285 43.9766 102.723 43.3828C102.168 42.7891 101.742 42.0938 101.445 41.2969C101.156 40.5 101.012 39.6562 101.012 38.7656C101.012 37.875 101.164 37.0391 101.469 36.2578C101.781 35.4766 102.219 34.7969 102.781 34.2188C103.344 33.6328 104.016 33.1719 104.797 32.8359C105.578 32.5 106.445 32.332 107.398 32.332C108.352 32.332 109.195 32.4922 109.93 32.8125C110.672 33.125 111.297 33.5625 111.805 34.125C112.312 34.6797 112.703 35.3359 112.977 36.0938C113.25 36.8438 113.398 37.6523 113.422 38.5195C113.445 38.7148 113.457 38.9102 113.457 39.1055C113.465 39.293 113.461 39.4883 113.445 39.6914H104.504ZM107.305 35.2617C106.867 35.2617 106.492 35.3164 106.18 35.4258C105.875 35.5273 105.617 35.6719 105.406 35.8594C105.195 36.0391 105.027 36.2461 104.902 36.4805C104.777 36.7148 104.68 36.9609 104.609 37.2188H109.684C109.629 36.9531 109.551 36.7031 109.449 36.4688C109.348 36.2344 109.207 36.0273 109.027 35.8477C108.848 35.668 108.617 35.5273 108.336 35.4258C108.062 35.3164 107.719 35.2617 107.305 35.2617Z" fill="black"/>
<path d="M115.637 27.2344H123.242V30.457H121.367V41.7891H125.234C125.336 41.7891 125.434 41.7617 125.527 41.707C125.629 41.6445 125.715 41.5664 125.785 41.4727C125.863 41.3789 125.926 41.2773 125.973 41.168C126.02 41.0586 126.043 40.9531 126.043 40.8516V38.4727H129.84V45H115.637V41.7891H117.477V30.457H115.637V27.2344ZM138.488 44.3438C138.215 44.5156 137.965 44.6641 137.738 44.7891C137.512 44.9062 137.285 45 137.059 45.0703C136.832 45.1484 136.598 45.2031 136.355 45.2344C136.113 45.2734 135.848 45.293 135.559 45.293C134.832 45.293 134.18 45.1953 133.602 45C133.031 44.7969 132.547 44.5234 132.148 44.1797C131.758 43.8281 131.457 43.418 131.246 42.9492C131.035 42.4727 130.93 41.957 130.93 41.4023C130.93 40.8398 131.035 40.3203 131.246 39.8438C131.465 39.3672 131.777 38.9609 132.184 38.625C132.59 38.2812 133.086 38.0156 133.672 37.8281C134.266 37.6328 134.941 37.5352 135.699 37.5352C136.254 37.5352 136.758 37.5664 137.211 37.6289C137.672 37.6836 138.098 37.7539 138.488 37.8398V37.4648C138.488 37.1602 138.43 36.8984 138.312 36.6797C138.195 36.4531 138.031 36.2695 137.82 36.1289C137.609 35.9805 137.355 35.875 137.059 35.8125C136.762 35.7422 136.438 35.707 136.086 35.707C135.352 35.707 134.703 35.7812 134.141 35.9297C133.586 36.0703 133.051 36.2773 132.535 36.5508L131.41 34.2773C132.207 33.7305 133.039 33.3125 133.906 33.0234C134.781 32.7344 135.707 32.5898 136.684 32.5898C137.441 32.5898 138.141 32.6758 138.781 32.8477C139.43 33.0117 139.984 33.2852 140.445 33.668C140.906 34.043 141.266 34.5352 141.523 35.1445C141.789 35.7539 141.922 36.4961 141.922 37.3711V41.7891H143.551V45H138.488V44.3438ZM135.816 42.5273C136.371 42.5273 136.875 42.4375 137.328 42.2578C137.781 42.0781 138.168 41.8594 138.488 41.6016V40.0547H135.676C135.496 40.0547 135.32 40.082 135.148 40.1367C134.977 40.1914 134.82 40.2695 134.68 40.3711C134.547 40.4727 134.438 40.5977 134.352 40.7461C134.273 40.8945 134.234 41.0664 134.234 41.2617C134.234 41.6211 134.363 41.9219 134.621 42.1641C134.887 42.4062 135.285 42.5273 135.816 42.5273ZM156.008 38.0156C156.008 37.3359 155.828 36.8047 155.469 36.4219C155.109 36.0312 154.633 35.8359 154.039 35.8359C153.633 35.8359 153.223 35.9258 152.809 36.1055C152.395 36.2852 151.992 36.6211 151.602 37.1133V41.7891H153.57V45H146.023V41.7891H147.805V36.0703H146.047V32.8594H151.578V33.9258C152.086 33.5273 152.652 33.2148 153.277 32.9883C153.91 32.7539 154.574 32.6367 155.27 32.6367C156.73 32.6367 157.855 33.0469 158.645 33.8672C159.434 34.6797 159.828 35.8711 159.828 37.4414V41.7891H161.551V45H156.008V38.0156ZM166.285 39.6914L166.32 40.0547C166.406 40.4062 166.551 40.7148 166.754 40.9805C166.965 41.2461 167.211 41.4688 167.492 41.6484C167.773 41.8281 168.086 41.9648 168.43 42.0586C168.773 42.1445 169.121 42.1875 169.473 42.1875C169.824 42.1875 170.156 42.168 170.469 42.1289C170.789 42.082 171.098 42.0234 171.395 41.9531C171.691 41.875 171.98 41.7891 172.262 41.6953C172.543 41.5938 172.828 41.4883 173.117 41.3789L174.406 43.7812C173.961 44.0547 173.551 44.2891 173.176 44.4844C172.809 44.6719 172.438 44.8281 172.062 44.9531C171.688 45.0781 171.289 45.168 170.867 45.2227C170.445 45.2852 169.953 45.3164 169.391 45.3164C168.336 45.3164 167.398 45.1445 166.578 44.8008C165.758 44.4492 165.066 43.9766 164.504 43.3828C163.949 42.7891 163.523 42.0938 163.227 41.2969C162.938 40.5 162.793 39.6562 162.793 38.7656C162.793 37.875 162.945 37.0391 163.25 36.2578C163.562 35.4766 164 34.7969 164.562 34.2188C165.125 33.6328 165.797 33.1719 166.578 32.8359C167.359 32.5 168.227 32.332 169.18 32.332C170.133 32.332 170.977 32.4922 171.711 32.8125C172.453 33.125 173.078 33.5625 173.586 34.125C174.094 34.6797 174.484 35.3359 174.758 36.0938C175.031 36.8438 175.18 37.6523 175.203 38.5195C175.227 38.7148 175.238 38.9102 175.238 39.1055C175.246 39.293 175.242 39.4883 175.227 39.6914H166.285ZM169.086 35.2617C168.648 35.2617 168.273 35.3164 167.961 35.4258C167.656 35.5273 167.398 35.6719 167.188 35.8594C166.977 36.0391 166.809 36.2461 166.684 36.4805C166.559 36.7148 166.461 36.9609 166.391 37.2188H171.465C171.41 36.9531 171.332 36.7031 171.23 36.4688C171.129 36.2344 170.988 36.0273 170.809 35.8477C170.629 35.668 170.398 35.5273 170.117 35.4258C169.844 35.3164 169.5 35.2617 169.086 35.2617ZM184.777 36.5742C184.777 36.3867 184.715 36.207 184.59 36.0352C184.473 35.8633 184.297 35.7148 184.062 35.5898C183.828 35.457 183.539 35.3516 183.195 35.2734C182.859 35.1953 182.477 35.1562 182.047 35.1562C181.883 35.1562 181.707 35.1719 181.52 35.2031C181.332 35.2266 181.156 35.2734 180.992 35.3438C180.836 35.4141 180.703 35.5117 180.594 35.6367C180.492 35.7539 180.441 35.9062 180.441 36.0938C180.441 36.1875 180.453 36.2773 180.477 36.3633C180.508 36.4492 180.562 36.5312 180.641 36.6094C180.719 36.6875 180.824 36.7617 180.957 36.832C181.098 36.8945 181.277 36.9453 181.496 36.9844L183.699 37.418C184.496 37.5742 185.164 37.7695 185.703 38.0039C186.242 38.2383 186.676 38.5117 187.004 38.8242C187.332 39.1367 187.566 39.4844 187.707 39.8672C187.855 40.25 187.93 40.6641 187.93 41.1094C187.93 41.8047 187.766 42.4141 187.438 42.9375C187.117 43.4609 186.691 43.8984 186.16 44.25C185.637 44.5938 185.043 44.8516 184.379 45.0234C183.723 45.2031 183.059 45.293 182.387 45.293C181.949 45.293 181.551 45.2656 181.191 45.2109C180.84 45.1562 180.52 45.082 180.23 44.9883C179.949 44.8945 179.695 44.7852 179.469 44.6602C179.25 44.5273 179.047 44.3828 178.859 44.2266H176.738V40.9688H180.055V41.0391C180.062 41.2656 180.133 41.4648 180.266 41.6367C180.398 41.8008 180.57 41.9414 180.781 42.0586C181 42.1758 181.246 42.2656 181.52 42.3281C181.793 42.3828 182.082 42.4102 182.387 42.4102C183.09 42.4102 183.602 42.3203 183.922 42.1406C184.242 41.9531 184.402 41.7148 184.402 41.4258C184.402 41.1992 184.324 41.0078 184.168 40.8516C184.012 40.6875 183.734 40.5586 183.336 40.4648L181.086 39.9844C179.672 39.7109 178.605 39.2578 177.887 38.625C177.168 37.9844 176.809 37.1641 176.809 36.1641C176.809 35.5781 176.945 35.0469 177.219 34.5703C177.492 34.0859 177.863 33.6758 178.332 33.3398C178.801 32.9961 179.348 32.7305 179.973 32.543C180.605 32.3555 181.281 32.2617 182 32.2617C182.492 32.2617 182.93 32.293 183.312 32.3555C183.695 32.4102 184.039 32.4844 184.344 32.5781C184.648 32.6719 184.914 32.7852 185.141 32.918C185.375 33.043 185.582 33.1758 185.762 33.3164H187.801V36.5742H184.777Z" fill="#240FBE"/>
<path d="M42 27H37.5V24C37.5 22.3455 36.1545 21 34.5 21H25.5C23.8455 21 22.5 22.3455 22.5 24V27H18C16.3455 27 15 28.3455 15 30V36H22.5V33H25.5V36H34.5V33H37.5V36H45V30C45 28.3455 43.6545 27 42 27ZM25.5 24H34.5V27H25.5V24ZM37.5 40.5H34.5V37.5H25.5V40.5H22.5V37.5H15V46.5C15 48.1545 16.3455 49.5 18 49.5H42C43.6545 49.5 45 48.1545 45 46.5V37.5H37.5V40.5Z" fill="#7362F3"/>
</svg>
